<svg id="Calque_1" data-name="Calque 1" xmlns="http://www.w3.org/2000/svg" viewBox="0 0 613.39 191.89"><defs><style>.cls-1{fill:#fff;}.cls-2{fill:#5b5b5c;}.cls-3{fill:#c9242e;}</style></defs><title>logo-epi</title><path class="cls-1" d="M199.54,330.07a112.13,112.13,0,0,0-39.11-35.58,116.61,116.61,0,0,0-50.89-14.31C153.21,303.52,184.6,338,205.36,382.6c.55-2.16,1-4.19,1.58-6.19,5.94-21.53,14.87-41.82,25.68-61.3,23.17-41.77,53.77-77.38,90.15-108.15,3.25-2.75,6.56-5.43,9.85-8.15a100.84,100.84,0,0,0-11,3.73c-28.15,11.56-52.28,28.92-73.14,50.93-19.72,20.8-34.89,44.61-46.38,70.82Zm188.24,50.14V347.4h1.8c6.52-.06,13.05.21,19.53-.25,12.7-.88,22.05-7.19,27.61-18.66,4.24-8.73,4.74-18,2.91-27.42a33,33,0,0,0-32.88-27.13q-21.6,0-43.22,0h-1.59V380.21ZM345,358H302.49V337.8h32.23V315.55H302.49V296.08H342.8v-22H276.57V380.19H345ZM481.23,380.2V274h-25.7V380.2Zm-293-86.49c2.47-5.15,4.72-10.5,7.5-15.55,7.19-13.05,16.76-24.31,27.23-34.82,16-16.08,33.87-30,52.76-42.49,2.64-1.75,5.32-3.45,8-5.16a2,2,0,0,0-1.13.1c-27.53,9.78-52.61,23.7-73.82,44-10.1,9.69-18.95,20.39-25.39,32.93a6.36,6.36,0,0,1-.4.55c-18.93-14.15-40.55-16.76-63.14-15.37C145.49,264.54,169.34,274.59,188.19,293.71ZM519.6,351.26c-4.4-3.93-12.76-4.71-18.13-1.8-6.2,3.36-9.24,10.29-7.77,17.75a14.76,14.76,0,0,0,18.59,11.55c2.16-.63,4.11-2,6.24-3v3.41c.94-.78,2.51.63,2.53-1.35.05-4.13,0-8.27,0-12.4,0-.78-.32-1.13-1.11-1.12-1.9,0-3.8,0-5.7,0-1.07,0-1,.68-1.07,1.44s.28,1.19,1.16,1.15c1.31-.06,2.62,0,4.07,0,0,1.75,0,3.26,0,4.77a1.94,1.94,0,0,1-.54,1.11,12.6,12.6,0,0,1-15.65,2.1c-4.62-3-6.14-7.53-5.8-12.81a12.26,12.26,0,0,1,14.42-11.44,63,63,0,0,1,7.58,2.37Zm79.37,24a4.49,4.49,0,0,1,.53.48c3.61,5.5,12.22,4.5,15.15-1.54a15,15,0,0,0,.85-10.56c-.92-3.66-3.1-6.29-7-7s-6.94.33-9.21,3.58c-.06.09-.22.11-.5.23v-3.33h-2.59v30.13c2.62.58,2.78.45,2.78-2.06C599,382,599,378.76,599,375.29ZM537.42,342v-30.5h-2.76V323.7c-2.55-3.61-5.72-4.72-9.57-3.82a8.82,8.82,0,0,0-7,7.44,21.74,21.74,0,0,0,0,7.59,8.46,8.46,0,0,0,6.71,7.32c3.87.85,7.25-.15,9.59-3.64,0,0,.16,0,.39,0V342Zm-27.66-16.67c-3.51,0-6.84,0-10.16,0-1.13,0-1.49-.37-1.47-1.48.06-2.9.05-5.8,0-8.7,0-1,.39-1.31,1.35-1.3,3.19,0,6.37,0,9.55,0h3.25v-2.37H495.47v30.44h17.68c.3-2.46.3-2.47-2-2.47-3.9,0-7.79,0-11.69,0-.93,0-1.38-.23-1.37-1.28.06-3,.05-6.08,0-9.12,0-.94.36-1.26,1.27-1.24,2.51,0,5,0,7.55,0h2.8Zm129.94,5.61a11.18,11.18,0,0,0,11.43,11.58A11.33,11.33,0,0,0,662.74,331a11.21,11.21,0,0,0-11.36-11.37C644.59,319.6,639.71,324.31,639.7,330.89Zm-75.07,37a11.52,11.52,0,0,0-23-.24,11.52,11.52,0,1,0,23,.24Zm129.62-45.83,1.22,2c3.22-1.59,4.73-2,6.56-2,2.67.09,4.5,1.48,5,3.81.59,2.65.54,2.71-2.17,2.72-.24,0-.48,0-.72,0-3,.16-6.07.43-8.74,2.14a6.05,6.05,0,0,0-2.85,6.11,5.84,5.84,0,0,0,3.92,5,8.21,8.21,0,0,0,10.1-2.94c.18-.26.34-.52.52-.78l.26,0v3.74h2.7c0-5.06.1-10,0-14.94-.07-2.71-1.07-5.12-3.7-6.47C703,318.8,697.23,319.53,694.25,322.09ZM609.91,342c0-5.06.16-9.91,0-14.74-.21-4.56-2.23-6.86-6.13-7.54a11.81,11.81,0,0,0-3.41-.08,11,11,0,0,0-6.27,2.4l1.26,2.06a11.61,11.61,0,0,1,6.68-2c3.51.17,5.58,2.85,4.84,6.52-.8,0-1.64,0-2.48,0-3,.1-6,.34-8.67,1.87a6.08,6.08,0,0,0-3.31,5.73,5.75,5.75,0,0,0,3.09,5.24,8.3,8.3,0,0,0,10.8-2.35l1-1.35V342l1.13.07Zm-49.42-.13c2.82.34,2.82.34,2.82-2.3V322.34c0-2.37,0-2.37-2.4-2.15a1.67,1.67,0,0,0-.47.22c0,3.58.06,7.18,0,10.79-.1,5-4,8.88-8.5,8.67a4,4,0,0,1-4.2-3.5,12.62,12.62,0,0,1-.26-2.68c0-4.45,0-8.9,0-13.43h-3c0,3.06,0,6,0,8.94,0,2.51.07,5,.28,7.53a5.89,5.89,0,0,0,4.57,5.53,9.63,9.63,0,0,0,10.37-4c.19-.28.42-.54.79-1Zm110.79.09v-1.66c0-3.19,0-6.37,0-9.55a8.66,8.66,0,0,1,6.14-8.21c4.31-1.29,7,.7,7.11,5.18V342a7.63,7.63,0,0,0,1.89,0c.37-.11.92-.56.92-.86,0-5.27.07-10.55-.18-15.82a5.55,5.55,0,0,0-4.19-5.36,9.85,9.85,0,0,0-10.85,3.77l-.91,1.29v-4.74h-2.59V342Zm-85,15.09a1.4,1.4,0,0,0-.13.39c0,3.37,0,6.75,0,10.12-.06,4.52-2.74,8.09-6.69,9-3.65.83-6.11-.88-6.25-4.57-.17-4.22-.12-8.46-.15-12.69,0-2.5,0-2.5-2.55-2.24-.08,0-.15.1-.3.22,0,5-.13,10,0,15,.1,3,1.06,5.64,4.35,6.66a9.58,9.58,0,0,0,10.51-3.52l1.1-1.53v4.8h2.63V357.07Zm.77-32.46c1.75-2.05,1.77-2.29-.48-3.48a11.84,11.84,0,0,0-12.22.16c-3.83,2.27-5.44,5.92-5.29,10.24s2,7.74,6,9.67a12.16,12.16,0,0,0,12.36-.72c1.86-1.15,1.86-1.69.27-3.32-4.76,4.14-10.41,3.16-13.27.17a9.48,9.48,0,0,1-.31-12.27C577.23,321.33,581.81,321.15,587,324.61Zm33.45-10.34c-2.62-.52-2.76-.42-2.76,1.94v1.14c0,2.75,0,2.75-2.7,2.89a1.29,1.29,0,0,0-.27.13v2.32h2.87c0,.82,0,1.48,0,2.14,0,3.61-.07,7.22.15,10.82.27,4.6,4,7.23,8.65,6.22,0-.35.05-.72.05-1.09s-.06-.73-.1-1.07c-4.62-.46-5.89-1.88-5.89-6.47V322.58h5.38v-2.41h-5.38Zm102.44,25.42c-2.25-.34-2.82-1-3-3.09,0-.52,0-1,0-1.56V313.67c0-2.49,0-2.49-2.54-2.27-.08,0-.15.1-.3.2,0,8.68-.11,17.42,0,26.14.07,3.3,2.63,4.93,5.77,4.09Zm-195.2,17.38v21.64c2.77.37,2.75.37,2.77-2.17,0-2.94,0-5.9.16-8.83.34-5,3.08-7.86,7.82-8.28v-2.66c-4.11-.34-6.26,2.07-8.13,5.19v-4.89Zm106.1-36.74c-2.71-.5-2.79-.44-2.79,2.1,0,5.75,0,11.49,0,17.23,0,2.55-.43,2.41,2.47,2.32.08,0,.16-.07.31-.15Zm0-5.45v-3.43H631v3.43Z" transform="translate(-109.54 -195.65)"/><path class="cls-2" d="M199.54,330.07l2.52-5.78c11.49-26.21,26.66-50,46.38-70.82,20.86-22,45-39.37,73.14-50.93a100.84,100.84,0,0,1,11-3.73c-3.29,2.72-6.6,5.4-9.85,8.15-36.38,30.77-67,66.38-90.15,108.15-10.81,19.48-19.74,39.77-25.68,61.3-.56,2-1,4-1.58,6.19C184.6,338,153.21,303.52,109.54,280.18a116.61,116.61,0,0,1,50.89,14.31A112.13,112.13,0,0,1,199.54,330.07Z" transform="translate(-109.54 -195.65)"/><path class="cls-3" d="M387.78,380.21H361.94V273.93h1.59q21.62,0,43.22,0a33,33,0,0,1,32.88,27.13c1.83,9.43,1.33,18.69-2.91,27.42-5.56,11.47-14.91,17.78-27.61,18.66-6.48.46-13,.19-19.53.25h-1.8Zm0-55.25a4.47,4.47,0,0,0,.76.13c4.61,0,9.23.16,13.82-.11A11.48,11.48,0,0,0,413,317.37a20.07,20.07,0,0,0,1.11-9.09c-.54-7.34-5.53-12.09-12.84-12.14-4,0-8,.05-12,0-1.32,0-1.57.43-1.56,1.63,0,8.6,0,17.2,0,25.8C387.73,324,387.77,324.45,387.8,325Z" transform="translate(-109.54 -195.65)"/><path class="cls-3" d="M345,358v22.18H276.57V274.05H342.8v22H302.49v19.47h32.23V337.8H302.49V358Z" transform="translate(-109.54 -195.65)"/><path class="cls-3" d="M481.23,380.2h-25.7V274h25.7Z" transform="translate(-109.54 -195.65)"/><path class="cls-2" d="M188.19,293.71c-18.85-19.12-42.7-29.17-68.4-35.77,22.59-1.39,44.21,1.22,63.14,15.37a6.36,6.36,0,0,0,.4-.55c6.44-12.54,15.29-23.24,25.39-32.93,21.21-20.34,46.29-34.26,73.82-44a2,2,0,0,1,1.13-.1c-2.67,1.71-5.35,3.41-8,5.16-18.89,12.54-36.73,26.41-52.76,42.49-10.47,10.51-20,21.77-27.23,34.82C192.91,283.21,190.66,288.56,188.19,293.71Z" transform="translate(-109.54 -195.65)"/><path class="cls-2" d="M519.6,351.26l-1.19,1.68a63,63,0,0,0-7.58-2.37A12.26,12.26,0,0,0,496.41,362c-.34,5.28,1.18,9.78,5.8,12.81a12.6,12.6,0,0,0,15.65-2.1,1.94,1.94,0,0,0,.54-1.11c.06-1.51,0-3,0-4.77-1.45,0-2.76,0-4.07,0-.88,0-1.2-.3-1.16-1.15s0-1.46,1.07-1.44c1.9,0,3.8,0,5.7,0,.79,0,1.11.34,1.11,1.12,0,4.13,0,8.27,0,12.4,0,2-1.59.57-2.53,1.35v-3.41c-2.13,1.06-4.08,2.4-6.24,3a14.76,14.76,0,0,1-18.59-11.55c-1.47-7.46,1.57-14.39,7.77-17.75C506.84,346.55,515.2,347.33,519.6,351.26Z" transform="translate(-109.54 -195.65)"/><path class="cls-2" d="M599,375.29c0,3.47,0,6.68,0,9.9,0,2.51-.16,2.64-2.78,2.06V357.12h2.59v3.33c.28-.12.44-.14.5-.23,2.27-3.25,5.42-4.3,9.21-3.58s6.09,3.37,7,7a15,15,0,0,1-.85,10.56c-2.93,6-11.54,7-15.15,1.54A4.49,4.49,0,0,0,599,375.29Zm14.6-7.3-.29-.12c-.13-.94-.2-1.89-.39-2.81a7.17,7.17,0,0,0-6.42-6.1,6.74,6.74,0,0,0-6.66,4.21,11.26,11.26,0,0,0,.46,10.14,6.46,6.46,0,0,0,11.47.11A29.38,29.38,0,0,0,613.57,368Z" transform="translate(-109.54 -195.65)"/><path class="cls-2" d="M537.42,342h-2.6v-3.36c-.23,0-.36,0-.39,0-2.34,3.49-5.72,4.49-9.59,3.64a8.46,8.46,0,0,1-6.71-7.32,21.74,21.74,0,0,1,0-7.59,8.82,8.82,0,0,1,7-7.44c3.85-.9,7,.21,9.57,3.82V311.45h2.76ZM535,331.08a36.84,36.84,0,0,0-1.23-4.71,6.18,6.18,0,0,0-6-4.23,6.53,6.53,0,0,0-6.32,4.26,11.46,11.46,0,0,0,.11,9.65,6.65,6.65,0,0,0,12.14,0A35.07,35.07,0,0,0,535,331.08Z" transform="translate(-109.54 -195.65)"/><path class="cls-2" d="M509.76,325.28v2.54H507c-2.52,0-5,0-7.55,0-.91,0-1.28.3-1.27,1.24,0,3,.05,6.08,0,9.12,0,1.05.44,1.29,1.37,1.28,3.9,0,7.79,0,11.69,0,2.26,0,2.26,0,2,2.47H495.47V311.47h16.82v2.37H509c-3.18,0-6.36,0-9.55,0-1,0-1.37.28-1.35,1.3,0,2.9.05,5.8,0,8.7,0,1.11.34,1.5,1.47,1.48C502.92,325.24,506.25,325.28,509.76,325.28Z" transform="translate(-109.54 -195.65)"/><path class="cls-2" d="M639.7,330.89c0-6.58,4.89-11.29,11.68-11.27A11.21,11.21,0,0,1,662.74,331a11.33,11.33,0,0,1-11.61,11.48A11.18,11.18,0,0,1,639.7,330.89Zm11.49,9a8.65,8.65,0,0,0,8.64-8.86,8.65,8.65,0,1,0-17.3-.12A8.66,8.66,0,0,0,651.19,339.89Z" transform="translate(-109.54 -195.65)"/><path class="cls-2" d="M564.63,367.92a11.52,11.52,0,1,1-11.38-11.5A11.18,11.18,0,0,1,564.63,367.92Zm-20.11.18c.29,5.21,4.17,9,9,8.68a8.95,8.95,0,1,0-9-8.68Z" transform="translate(-109.54 -195.65)"/><path class="cls-2" d="M694.25,322.09c3-2.56,8.76-3.29,12.08-1.59,2.63,1.35,3.63,3.76,3.7,6.47.14,4.94,0,9.88,0,14.94h-2.7v-3.74l-.26,0c-.18.26-.34.52-.52.78a8.21,8.21,0,0,1-10.1,2.94,5.84,5.84,0,0,1-3.92-5,6.05,6.05,0,0,1,2.85-6.11c2.67-1.71,5.69-2,8.74-2.14.24,0,.48,0,.72,0,2.71,0,2.76-.07,2.17-2.72-.52-2.33-2.35-3.72-5-3.81-1.83-.06-3.34.39-6.56,2Zm6.47,18.07a11.94,11.94,0,0,0,1.27-.25c3.1-.89,5.89-5.3,5.29-8.41a1,1,0,0,0-.71-.66c-3-.1-6-.13-8.76,1.27a4,4,0,0,0-2.37,3.47C695.3,338.17,697.39,340.14,700.72,340.16Z" transform="translate(-109.54 -195.65)"/><path class="cls-2" d="M609.91,342h-1.56l-1.13-.07v-4.21l-1,1.35a8.3,8.3,0,0,1-10.8,2.35,5.75,5.75,0,0,1-3.09-5.24,6.08,6.08,0,0,1,3.31-5.73c2.68-1.53,5.67-1.77,8.67-1.87.84,0,1.68,0,2.48,0,.74-3.67-1.33-6.35-4.84-6.52a11.61,11.61,0,0,0-6.68,2l-1.26-2.06a11,11,0,0,1,6.27-2.4,11.81,11.81,0,0,1,3.41.08c3.9.68,5.92,3,6.13,7.54C610.07,332.11,609.91,337,609.91,342Zm-6-11.23c-.79.07-1.74.08-2.67.24a14.33,14.33,0,0,0-2.74.71c-2.32.85-3.58,2.67-3.26,4.57a4.65,4.65,0,0,0,4.76,3.85c3.18.08,5.76-2.2,6.76-6C607.58,331.05,607.24,330.63,603.9,330.79Z" transform="translate(-109.54 -195.65)"/><path class="cls-2" d="M560.49,341.89v-4.62c-.37.46-.6.72-.79,1a9.63,9.63,0,0,1-10.37,4,5.89,5.89,0,0,1-4.57-5.53c-.21-2.5-.24-5-.28-7.53-.05-2.94,0-5.88,0-8.94h3c0,4.53,0,9,0,13.43a12.62,12.62,0,0,0,.26,2.68,4,4,0,0,0,4.2,3.5c4.53.21,8.4-3.68,8.5-8.67.08-3.61,0-7.21,0-10.79a1.67,1.67,0,0,1,.47-.22c2.4-.22,2.4-.22,2.4,2.15v17.25C563.31,342.23,563.31,342.23,560.49,341.89Z" transform="translate(-109.54 -195.65)"/><path class="cls-2" d="M671.28,342h-2.63V320.26h2.59V325l.91-1.29A9.85,9.85,0,0,1,683,319.94a5.55,5.55,0,0,1,4.19,5.36c.25,5.27.18,10.55.18,15.82,0,.3-.55.75-.92.86a7.63,7.63,0,0,1-1.89,0V327.74c-.06-4.48-2.8-6.47-7.11-5.18a8.66,8.66,0,0,0-6.14,8.21c-.07,3.18,0,6.36,0,9.55Z" transform="translate(-109.54 -195.65)"/><path class="cls-2" d="M586.27,357.07h2.52v21.66h-2.63v-4.8l-1.1,1.53A9.58,9.58,0,0,1,574.55,379c-3.29-1-4.25-3.7-4.35-6.66-.17-5,0-10.07,0-15,.15-.12.22-.21.3-.22,2.55-.26,2.54-.26,2.55,2.24,0,4.23,0,8.47.15,12.69.14,3.69,2.6,5.4,6.25,4.57,4-.89,6.63-4.46,6.69-9,0-3.37,0-6.75,0-10.12A1.4,1.4,0,0,1,586.27,357.07Z" transform="translate(-109.54 -195.65)"/><path class="cls-2" d="M587,324.61c-5.23-3.46-9.81-3.28-13,.45a9.48,9.48,0,0,0,.31,12.27c2.86,3,8.51,4,13.27-.17,1.59,1.63,1.59,2.17-.27,3.32a12.16,12.16,0,0,1-12.36.72c-4-1.93-5.81-5.41-6-9.67s1.46-8,5.29-10.24a11.84,11.84,0,0,1,12.22-.16C588.81,322.32,588.79,322.56,587,324.61Z" transform="translate(-109.54 -195.65)"/><path class="cls-2" d="M620.49,314.27v5.9h5.38v2.41h-5.38v10.66c0,4.59,1.27,6,5.89,6.47,0,.34.09.71.1,1.07s0,.74-.05,1.09c-4.62,1-8.38-1.62-8.65-6.22-.22-3.6-.12-7.21-.15-10.82,0-.66,0-1.32,0-2.14h-2.87v-2.32a1.29,1.29,0,0,1,.27-.13c2.7-.14,2.7-.14,2.7-2.89v-1.14C617.73,313.85,617.87,313.75,620.49,314.27Z" transform="translate(-109.54 -195.65)"/><path class="cls-2" d="M722.93,339.69v2.14c-3.14.84-5.7-.79-5.77-4.09-.16-8.72,0-17.46,0-26.14.15-.1.22-.19.3-.2,2.54-.22,2.54-.22,2.54,2.27V335c0,.52,0,1,0,1.56C720.11,338.72,720.68,339.35,722.93,339.69Z" transform="translate(-109.54 -195.65)"/><path class="cls-2" d="M527.73,357.07h2.62V362c1.87-3.12,4-5.53,8.13-5.19v2.66c-4.74.42-7.48,3.23-7.82,8.28-.2,2.93-.13,5.89-.16,8.83,0,2.54,0,2.54-2.77,2.17Z" transform="translate(-109.54 -195.65)"/><path class="cls-2" d="M633.83,320.33v21.5c-.15.08-.23.15-.31.15-2.9.09-2.46.23-2.47-2.32,0-5.74,0-11.48,0-17.23C631,319.89,631.12,319.83,633.83,320.33Z" transform="translate(-109.54 -195.65)"/><path class="cls-2" d="M633.86,314.88H631v-3.43h2.83Z" transform="translate(-109.54 -195.65)"/><path class="cls-1" d="M387.8,325c0-.51-.07-1-.07-1.43,0-8.6,0-17.2,0-25.8,0-1.2.24-1.66,1.56-1.63,4,.09,8,0,12,0,7.31.05,12.3,4.8,12.84,12.14a20.07,20.07,0,0,1-1.11,9.09A11.48,11.48,0,0,1,402.38,325c-4.59.27-9.21.09-13.82.11A4.47,4.47,0,0,1,387.8,325Z" transform="translate(-109.54 -195.65)"/><path class="cls-1" d="M613.57,368a29.38,29.38,0,0,1-1.83,5.43,6.46,6.46,0,0,1-11.47-.11,11.26,11.26,0,0,1-.46-10.14,6.74,6.74,0,0,1,6.66-4.21,7.17,7.17,0,0,1,6.42,6.1c.19.92.26,1.87.39,2.81Z" transform="translate(-109.54 -195.65)"/><path class="cls-1" d="M651.19,339.89a8.66,8.66,0,0,1-8.66-9,8.65,8.65,0,1,1,17.3.12A8.65,8.65,0,0,1,651.19,339.89Z" transform="translate(-109.54 -195.65)"/><path class="cls-1" d="M544.52,368.1a8.66,8.66,0,1,1,9,8.68C548.69,377.06,544.81,373.31,544.52,368.1Z" transform="translate(-109.54 -195.65)"/><path class="cls-1" d="M603.9,330.79c3.34-.16,3.68.26,2.85,3.37-1,3.8-3.58,6.08-6.76,6a4.65,4.65,0,0,1-4.76-3.85c-.32-1.9.94-3.72,3.26-4.57a14.33,14.33,0,0,1,2.74-.71C602.16,330.87,603.11,330.86,603.9,330.79Z" transform="translate(-109.54 -195.65)"/></svg>